# xmcd
#
# Track frame offsets: 
#        150
#        29162
#        69232
#        110520
#        169807
#        238092
#        262985
#        289817
#
# Disc length: 4426 seconds
#
# Revision: 7
# Processed by: cddbd v1.5.2PL0 Copyright (c) Steve Scherf et al.
# Submitted via: ExactAudioCopyFreeDBPlugin 1.0
#
DISCID=72114808
DTITLE=Miles Davis - Greatest Hits
DYEAR=1997
DGENRE=Blues
TTITLE0=Seven Steps to Heaven
TTITLE1=All Blues
TTITLE2=Someday My Prince Will Come
TTITLE3=Walkin'
TTITLE4=My Funny Valentine
TTITLE5=E.S.P.
TTITLE6='Round Midnight
TTITLE7=So What
EXTD=
EXTT0=
EXTT1=
EXTT2=
EXTT3=
EXTT4=
EXTT5=
EXTT6=
EXTT7=
PLAYORDER=
